<svg id="visual" viewBox="0 0 900 600" width="900" height="600" xmlns="http://www.w3.org/2000/svg" xmlns:xlink="http://www.w3.org/1999/xlink" version="1.1"><path d="M0 91L13.7 94C27.3 97 54.7 103 82 106C109.3 109 136.7 109 163.8 112C191 115 218 121 245.2 122C272.3 123 299.7 119 327 114C354.3 109 381.7 103 409 96C436.3 89 463.7 81 491 75C518.3 69 545.7 65 573 71C600.3 77 627.7 93 654.8 94C682 95 709 81 736.2 79C763.3 77 790.7 87 818 96C845.3 105 872.7 113 886.3 117L900 121L900 0L886.3 0C872.7 0 845.3 0 818 0C790.7 0 763.3 0 736.2 0C709 0 682 0 654.8 0C627.7 0 600.3 0 573 0C545.7 0 518.3 0 491 0C463.7 0 436.3 0 409 0C381.7 0 354.3 0 327 0C299.7 0 272.3 0 245.2 0C218 0 191 0 163.8 0C136.7 0 109.3 0 82 0C54.7 0 27.3 0 13.7 0L0 0Z" fill="#c3c6b9"></path><path d="M0 169L13.7 181C27.3 193 54.7 217 82 228C109.3 239 136.7 237 163.8 237C191 237 218 239 245.2 243C272.3 247 299.7 253 327 242C354.3 231 381.7 203 409 196C436.3 189 463.7 203 491 194C518.3 185 545.7 153 573 153C600.3 153 627.7 185 654.8 200C682 215 709 213 736.2 209C763.3 205 790.7 199 818 201C845.3 203 872.7 213 886.3 218L900 223L900 119L886.3 115C872.7 111 845.3 103 818 94C790.7 85 763.3 75 736.2 77C709 79 682 93 654.8 92C627.7 91 600.3 75 573 69C545.7 63 518.3 67 491 73C463.7 79 436.3 87 409 94C381.7 101 354.3 107 327 112C299.7 117 272.3 121 245.2 120C218 119 191 113 163.8 110C136.7 107 109.3 107 82 104C54.7 101 27.3 95 13.7 92L0 89Z" fill="#b5b9aa"></path><path d="M0 223L13.7 232C27.3 241 54.7 259 82 271C109.3 283 136.7 289 163.8 289C191 289 218 283 245.2 289C272.3 295 299.7 313 327 302C354.3 291 381.7 251 409 247C436.3 243 463.7 275 491 274C518.3 273 545.7 239 573 235C600.3 231 627.7 257 654.8 266C682 275 709 267 736.2 266C763.3 265 790.7 271 818 272C845.3 273 872.7 269 886.3 267L900 265L900 221L886.3 216C872.7 211 845.3 201 818 199C790.7 197 763.3 203 736.2 207C709 211 682 213 654.8 198C627.7 183 600.3 151 573 151C545.7 151 518.3 183 491 192C463.7 201 436.3 187 409 194C381.7 201 354.3 229 327 240C299.7 251 272.3 245 245.2 241C218 237 191 235 163.8 235C136.7 235 109.3 237 82 226C54.7 215 27.3 191 13.7 179L0 167Z" fill="#a8ad9c"></path><path d="M0 457L13.7 447C27.3 437 54.7 417 82 415C109.3 413 136.7 429 163.8 422C191 415 218 385 245.2 377C272.3 369 299.7 383 327 394C354.3 405 381.7 413 409 411C436.3 409 463.7 397 491 406C518.3 415 545.7 445 573 456C600.3 467 627.7 459 654.8 439C682 419 709 387 736.2 377C763.3 367 790.7 379 818 380C845.3 381 872.7 371 886.3 366L900 361L900 263L886.3 265C872.7 267 845.3 271 818 270C790.7 269 763.3 263 736.2 264C709 265 682 273 654.8 264C627.7 255 600.3 229 573 233C545.7 237 518.3 271 491 272C463.7 273 436.3 241 409 245C381.7 249 354.3 289 327 300C299.7 311 272.3 293 245.2 287C218 281 191 287 163.8 287C136.7 287 109.3 281 82 269C54.7 257 27.3 239 13.7 230L0 221Z" fill="#919686"></path><path d="M0 601L13.7 601C27.3 601 54.7 601 82 601C109.3 601 136.7 601 163.8 601C191 601 218 601 245.2 601C272.3 601 299.7 601 327 601C354.3 601 381.7 601 409 601C436.3 601 463.7 601 491 601C518.3 601 545.7 601 573 601C600.3 601 627.7 601 654.8 601C682 601 709 601 736.2 601C763.3 601 790.7 601 818 601C845.3 601 872.7 601 886.3 601L900 601L900 359L886.3 364C872.7 369 845.3 379 818 378C790.7 377 763.3 365 736.2 375C709 385 682 417 654.8 437C627.7 457 600.3 465 573 454C545.7 443 518.3 413 491 404C463.7 395 436.3 407 409 409C381.7 411 354.3 403 327 392C299.7 381 272.3 367 245.2 375C218 383 191 413 163.8 420C136.7 427 109.3 411 82 413C54.7 415 27.3 435 13.7 445L0 455Z" fill="#7b7f71"></path></svg>